PathFileType	4	(X/Y/Z)	C:/Users/opensim2020/Desktop/walking_exp_matlab/subject06_walking17_straight_02.trc	
DataRate	CameraRate	NumFrames	NumMarkers	Units	OrigDataRate	OrigDataStartFrame	OrigNumFrames	
100.00	100.00	8	45	mm	100.00	2282	334	
Frame#	Time	LFHD			RFHD			LBHD			RBHD			C7			T10			CLAV			STRN			RBAK			LSHO			LUPA			LELB			LFRM			LWRA			LWRB			LFIN			RSHO			RUPA			RELB			RFRM			RWRA			RWRB			RFIN			LASI			RASI			LPSI			RPSI			LTHI			LKNE			LTIB			LANK			LHEE			LTOE			RTHI			RKNE			RTIB			RANK			RHEE			RTOE			*39			*40			*41			*42			*43			*44			
		X1	Y1	Z1	X2	Y2	Z2	X3	Y3	Z3	X4	Y4	Z4	X5	Y5	Z5	X6	Y6	Z6	X7	Y7	Z7	X8	Y8	Z8	X9	Y9	Z9	X10	Y10	Z10	X11	Y11	Z11	X12	Y12	Z12	X13	Y13	Z13	X14	Y14	Z14	X15	Y15	Z15	X16	Y16	Z16	X17	Y17	Z17	X18	Y18	Z18	X19	Y19	Z19	X20	Y20	Z20	X21	Y21	Z21	X22	Y22	Z22	X23	Y23	Z23	X24	Y24	Z24	X25	Y25	Z25	X26	Y26	Z26	X27	Y27	Z27	X28	Y28	Z28	X29	Y29	Z29	X30	Y30	Z30	X31	Y31	Z31	X32	Y32	Z32	X33	Y33	Z33	X34	Y34	Z34	X35	Y35	Z35	X36	Y36	Z36	X37	Y37	Z37	X38	Y38	Z38	X39	Y39	Z39	X40	Y40	Z40	X41	Y41	Z41	X42	Y42	Z42	X43	Y43	Z43	X44	Y44	Z44	X45	Y45	Z45	

126	1.250	1528.91077	415.09790	1661.61096	1397.92480	418.43985	1647.58569	1533.49500	544.01837	1596.90686	1405.59595	546.25812	1589.08398	1473.41455	536.08789	1441.95190	1450.95300	562.70825	1113.56616	1473.01367	423.54544	1367.27966	1469.40356	382.68161	1190.63940	1381.52991	601.93866	1275.25745	1634.54211	484.15771	1389.16187	1696.27429	513.59467	1185.94470	1699.30640	535.70459	1075.02515	1707.39063	533.39819	923.10638	1647.72729	498.44644	805.19983	1695.49097	553.18909	805.75092	1682.48242	525.94250	719.61517	1311.79639	461.52936	1405.16431	1217.69324	480.00027	1206.24670	1205.15735	460.63495	1085.47046	1190.39319	428.87051	969.20190	1229.92188	355.32315	838.93036	1182.15833	403.21152	834.72662	1184.45703	356.95151	764.52191	1550.35925	375.67511	957.52405	1329.05029	388.40005	960.52924	1530.54700	536.98334	982.65637	1362.13049	537.17535	987.50659	1618.28491	406.09372	646.87494	1594.35144	373.01083	487.94049	1586.64978	350.85883	234.04683	1544.23328	310.67346	66.50228	1494.48901	343.94489	50.56474	1546.29688	161.00867	50.17826	1282.91187	484.05914	626.56348	1301.08337	500.95132	499.94870	1318.10266	677.28833	294.21674	1367.01929	790.70135	148.28320	1415.36194	832.66498	149.89540	1366.06995	686.20282	36.67794	1471.74841	519.98914	1690.91907															 
127	1.260	1530.75671	408.10773	1662.79468	1399.78296	411.82565	1649.01416	1535.57092	536.84363	1597.84900	1407.69006	539.41968	1590.27576	1475.29468	528.74371	1442.96643	1452.43237	554.98175	1114.72034	1474.43323	416.02499	1368.54553	1470.70972	374.93942	1191.98145	1383.42053	594.46973	1276.32996	1636.18030	475.96533	1390.35205	1697.89819	503.89594	1186.85999	1701.13721	525.39331	1075.85681	1709.77869	522.18536	924.21344	1649.29785	488.30966	806.07642	1697.89246	542.10321	806.58759	1684.38599	515.26990	720.43494	1313.40466	454.59525	1406.58960	1219.43481	473.67709	1207.66150	1207.10217	454.41803	1086.80383	1192.01477	423.64066	970.26294	1230.81274	351.02414	839.17346	1183.29150	399.81924	835.44757	1185.22803	353.70673	764.87408	1552.37769	367.97906	959.09790	1331.15161	380.32095	961.70074	1531.77979	529.26691	984.06525	1363.48193	529.17908	988.21478	1619.79004	398.61783	648.58551	1596.05591	368.05984	488.76898	1587.61194	347.92914	234.52519	1544.43054	310.26233	66.48260	1494.89246	343.98914	50.59773	1545.02905	160.63695	49.27709	1283.07031	472.67859	626.53229	1300.23718	487.65527	499.86868	1318.46802	667.30469	297.66937	1368.27783	783.09180	154.24629	1417.30762	823.68573	157.42061	1366.40771	684.96222	36.87421	1473.98193	513.20911	1692.01355															 
128	1.270	1532.61816	401.00870	1663.98804	1401.62109	405.09857	1650.47485	1537.59753	529.67041	1598.92505	1409.78259	532.63489	1591.60278	1477.14111	521.38623	1444.07141	1454.09509	547.67133	1115.91968	1475.81873	408.62326	1369.87610	1472.03430	367.28683	1193.33801	1385.08264	587.09723	1277.56372	1637.74829	467.81009	1391.64587	1699.65637	494.20660	1187.99878	1703.09863	515.01227	1076.93616	1711.69153	511.12827	925.28589	1650.89709	477.59879	807.14740	1700.58044	530.68439	807.64801	1686.47498	504.11133	721.39679	1314.99097	447.64630	1408.11133	1221.11462	467.26920	1209.25452	1209.01514	448.34119	1088.25024	1193.58093	418.54785	971.48419	1231.73987	347.23178	839.41522	1184.57642	395.45648	836.47357	1186.02185	350.52731	765.31989	1554.46570	360.48837	960.66827	1333.31238	372.58658	962.90302	1533.07861	521.72559	985.40771	1364.90417	521.44952	988.97980	1620.89978	391.53537	650.18311	1597.47839	363.69989	489.50665	1588.15710	346.18616	234.63113	1544.43616	310.01050	66.50694	1495.15198	344.09210	50.67845	1543.82532	159.99301	48.76197	1283.27844	460.97464	626.80377	1299.16003	473.78952	499.87411	1319.18005	656.13953	301.24527	1369.34314	774.55005	160.31699	1419.35803	813.45215	165.08765	1366.74182	683.42792	37.35810	1476.16724	506.21710	1693.24622															 
129	1.280	1534.46655	393.91248	1665.06873	1403.42944	398.29828	1651.82520	1539.68323	522.50928	1600.00073	1411.83984	525.78668	1592.94995	1478.90820	514.08545	1445.13501	1455.83911	540.50854	1117.12769	1477.12500	401.25723	1371.14429	1473.30981	359.63965	1194.72681	1386.67615	579.69934	1278.87659	1639.18945	459.70529	1393.01917	1701.41748	484.57156	1189.21558	1705.09753	504.62582	1078.10486	1713.88965	499.78583	926.47760	1652.59473	466.59985	808.41486	1703.17188	518.63745	808.75342	1688.50574	492.39255	722.45410	1316.64746	440.77319	1409.63391	1222.89307	461.06711	1210.82874	1210.76355	442.37747	1089.78040	1195.06665	413.45953	972.77332	1232.63000	342.99536	839.96124	1185.73792	391.61203	837.50208	1186.95862	347.30432	765.72937	1556.50684	353.19833	962.25006	1335.48901	365.06653	964.10840	1534.45374	514.30750	986.69061	1366.44739	513.99481	989.72296	1621.63953	385.30048	651.46576	1598.81140	360.04153	490.06982	1588.87646	344.94159	234.69594	1544.45337	309.61212	66.52245	1495.39392	344.05511	50.77163	1543.02002	159.69142	48.19686	1283.34778	449.19574	627.28265	1297.97131	459.53885	500.03885	1319.55115	644.51007	305.02048	1370.17822	765.15790	166.49583	1421.28687	802.38855	173.04027	1366.51172	682.17181	38.38984	1478.34717	499.23355	1694.47656															 
130	1.290	1536.20996	386.85599	1665.90161	1405.21411	391.46500	1653.03149	1541.61633	515.35321	1600.94531	1413.72888	519.01849	1594.20862	1480.60193	506.87442	1446.11487	1457.58691	533.36377	1118.29041	1478.43262	393.97409	1372.30017	1474.56580	352.17749	1195.84326	1388.19202	572.37860	1280.15002	1640.58154	451.69666	1394.40625	1703.25061	475.01892	1190.52405	1707.20520	494.28400	1079.30103	1716.09680	488.32169	927.72815	1654.44336	455.17184	809.72809	1705.96619	506.42062	809.88947	1690.70166	479.90543	723.50427	1318.26514	433.92578	1411.04492	1224.24866	454.18924	1212.40747	1212.43848	436.43393	1091.22290	1196.44141	408.38272	974.04474	1233.42920	338.76440	840.54449	1187.01904	387.96106	838.41980	1187.89978	344.07919	766.28021	1558.40076	345.91940	963.67822	1337.54688	357.71005	965.28754	1535.97839	507.51065	987.95813	1368.11157	506.81512	990.38293	1622.90686	379.80646	652.03717	1600.14148	356.91397	490.30472	1589.45166	343.25967	235.00745	1544.38879	309.30078	66.58089	1495.39258	343.96738	50.92600	1542.74500	159.46243	47.63943	1283.24622	437.35422	627.65680	1296.91113	445.13358	500.25357	1319.34119	632.64490	309.06891	1370.94373	755.52545	173.12404	1422.49304	791.23956	181.45013	1366.41785	679.63617	39.97923	1480.40259	492.22833	1695.50793															 
131	1.300	1538.13220	379.47903	1666.75256	1406.92273	384.63077	1654.03442	1543.44019	508.21823	1601.64819	1415.55554	512.16083	1595.23462	1482.18933	499.75519	1446.85840	1459.37939	526.41724	1119.31885	1479.67273	386.84619	1373.21179	1475.80688	344.88571	1196.85840	1389.81055	565.29230	1281.19373	1641.87476	443.80734	1395.67114	1705.08960	465.53702	1191.82983	1709.33276	483.96896	1080.42896	1718.35571	476.67719	928.89594	1656.47278	443.34027	811.09088	1708.66516	493.70551	810.90790	1693.08997	467.03040	724.71722	1319.84106	427.20801	1412.27209	1225.61963	447.59735	1213.88440	1214.01172	430.62195	1092.57520	1197.70044	403.38232	975.19830	1234.18018	334.16113	841.20911	1188.05774	383.89267	839.41211	1188.84363	340.76178	766.66693	1560.12622	338.76584	964.83411	1339.45740	350.82553	966.33948	1537.54468	500.24237	988.91595	1369.86462	499.91580	990.89905	1623.71887	375.05304	652.68854	1601.49316	353.91351	490.36310	1589.64978	341.98398	235.13206	1544.23779	308.98447	66.57187	1495.33972	343.80527	51.07289	1542.27454	159.32846	47.12317	1283.15930	425.35312	628.02991	1296.03125	430.64703	500.53168	1319.38330	619.69556	313.06921	1371.29297	745.45099	180.08240	1423.04651	780.30792	190.18326	1366.55652	675.86578	42.79587	1482.43970	485.14020	1696.38879															 
132	1.310	1539.69568	372.57336	1667.33582	1408.53516	377.83780	1654.97900	1545.22705	501.13461	1602.25500	1417.30933	505.31171	1596.13269	1483.78406	492.77161	1447.54492	1461.12915	519.49237	1120.17407	1480.90881	379.69000	1374.06555	1477.06360	337.72165	1197.68542	1391.53296	558.32526	1282.02441	1643.15100	436.05090	1396.84265	1706.99280	456.16730	1192.99854	1711.63550	473.63864	1081.44495	1720.81848	464.92786	929.98682	1658.52698	431.34613	812.41376	1711.44653	480.78195	811.95013	1695.57019	453.76428	725.82184	1321.36316	420.59647	1413.27649	1227.02869	441.34720	1215.07996	1215.46423	424.80252	1093.64270	1198.88684	398.35657	976.16235	1234.92542	329.79471	841.64600	1188.82385	379.48203	840.24420	1189.86389	337.06653	766.94934	1561.65845	331.83203	965.64966	1341.03638	344.18750	967.34515	1539.28540	492.73364	989.58411	1371.68250	493.25287	991.20642	1624.92407	370.63043	652.93341	1602.77124	350.78964	490.35083	1589.82239	341.09579	235.05882	1543.98853	308.47260	66.54471	1495.28198	343.75195	51.24570	1541.90039	159.07170	46.69098	1283.09619	413.67163	628.46136	1295.44238	416.03680	500.92099	1319.73132	606.48724	317.32333	1371.70117	734.76831	187.24927	1423.34583	768.71136	198.86215	1366.41553	671.11639	46.38167	1484.30371	478.15747	1697.10828															 
133	1.320	1541.31750	365.53293	1667.97852	1410.03223	371.00787	1655.83093	1546.93933	494.02267	1602.81104	1418.96777	498.44885	1596.87769	1485.28674	485.81818	1448.20154	1462.92114	512.65271	1120.90942	1482.10864	372.65015	1374.76563	1478.29089	330.83102	1198.36816	1393.36926	551.59595	1282.71606	1644.46155	428.39771	1397.84863	1708.91809	446.90973	1193.97742	1714.00598	463.35135	1082.30457	1723.20093	453.03619	930.90308	1660.74756	418.89651	813.56390	1714.30566	467.70471	812.82477	1698.39478	439.69022	726.90131	1322.76367	414.10126	1413.99854	1228.03918	434.60284	1216.06372	1216.76990	419.03906	1094.54285	1199.97339	393.32181	976.91217	1235.72217	325.65836	841.75208	1189.71094	375.08112	840.77246	1190.73218	333.52362	767.06201	1563.08569	324.93472	966.16241	1342.37598	337.81482	968.21606	1541.01538	485.66791	990.18030	1373.47412	486.83884	991.43225	1626.25317	366.21225	653.22192	1603.91699	347.50803	490.34445	1590.15479	339.98123	235.04146	1543.91052	308.43637	66.55943	1495.21411	343.67093	51.29400	1541.39856	159.11543	46.19424	1283.15491	402.25269	628.90546	1295.16724	401.35477	501.25613	1319.50403	592.49188	320.94217	1372.11658	723.46075	194.27299	1424.01636	756.77301	207.32562	1366.61694	666.13123	49.74110	1486.13171	471.25092	1697.78357															 
